Coordinates
version=1
nRows=14
nColumns=40
inDegrees=yes

Units are S.I. units (second, meters, Newtons, ...)
Angles are in degrees.

endheader
time	pelvis_tilt	pelvis_list	pelvis_rotation	pelvis_tx	pelvis_ty	pelvis_tz	hip_flexion_r	hip_adduction_r	hip_rotation_r	knee_angle_r	knee_angle_r_beta	ankle_angle_r	subtalar_angle_r	mtp_angle_r	hip_flexion_l	hip_adduction_l	hip_rotation_l	knee_angle_l	knee_angle_l_beta	ankle_angle_l	subtalar_angle_l	mtp_angle_l	lumbar_extension	lumbar_bending	lumbar_rotation	arm_flex_r	arm_add_r	arm_rot_r	elbow_flex_r	pro_sup_r	wrist_flex_r	wrist_dev_r	arm_flex_l	arm_add_l	arm_rot_l	elbow_flex_l	pro_sup_l	wrist_flex_l	wrist_dev_l
     39.62000000	     -4.28252944	     -3.39404704	     -0.22825599	      0.93675904	      0.93747020	      0.43212857	     38.08655819	     -5.76260440	     -6.70527398	     63.76707726	     63.76707726	     -1.64777642	    -15.09553682	      0.62085328	      8.02194641	     -2.55514501	    -10.03278372	     16.31137136	     16.31137136	     15.38371383	     -2.42153991	      1.11716084	    -10.74921989	      5.51228947	      2.73918882	     -4.65508530	    -12.35603121	     -5.51102675	     26.35017759	     46.67856586	      0.00000000	      0.00000000	     20.93818934	    -14.99725071	     -1.12036448	     63.15458749	     46.66557056	      0.00000000	      0.00000000
     39.63285714	     -4.36516142	     -3.44080199	     -0.32319338	      0.93604885	      0.93734790	      0.43236370	     38.54080863	     -5.46645422	     -6.95299319	     60.52956475	     60.52956475	     -1.64646789	    -15.15627695	     -0.74414987	      7.35347050	     -2.62922866	    -10.39984737	     15.82410936	     15.82410936	     15.36961024	     -1.87784617	      0.33415721	    -10.80062069	      5.47204696	      1.90445316	     -5.57906311	    -12.35333234	     -4.52921185	     25.77660602	     46.59893104	      0.00000000	      0.00000000	     20.70834554	    -15.71637751	     -2.28753773	     66.60583168	     46.84958539	      0.00000000	      0.00000000
     39.64571429	     -4.39234735	     -3.48902514	     -0.43037495	      0.93546183	      0.93717649	      0.43270765	     38.77065920	     -5.15193875	     -7.20558333	     56.96653149	     56.96653149	     -1.24233369	    -14.86902639	     -0.66193781	      6.59251456	     -2.65676717	    -10.53561412	     15.30635608	     15.30635608	     15.56627641	     -1.66306213	      0.20010215	    -10.86280693	      5.48176823	      1.93586696	     -7.01823799	    -12.34068860	     -4.32974348	     25.46469975	     46.57884011	      0.00000000	      0.00000000	     21.64242524	    -15.76260227	     -2.62233681	     67.88913796	     46.90943228	      0.00000000	      0.00000000
     39.65857143	     -4.59454717	     -3.55577154	     -0.51125327	      0.93485281	      0.93650525	      0.43320070	     38.98924602	     -4.83091892	     -7.53699005	     53.04277048	     53.04277048	     -0.80715243	    -14.34828145	     -0.38924310	      6.10865852	     -2.71380900	    -10.57318591	     14.94387134	     14.94387134	     15.82724312	     -1.57001284	      0.06535873	    -10.67211244	      5.53868922	      1.71083997	     -8.23617152	    -12.27730555	     -4.28805243	     25.22351962	     46.57251905	      0.00000000	      0.00000000	     22.43556101	    -16.09847055	     -2.88209191	     68.70337885	     46.94781807	      0.00000000	      0.00000000
     39.67142857	     -4.53240958	     -3.62567268	     -0.64803322	      0.93460073	      0.93598211	      0.43385294	     38.60577589	     -4.40623294	     -7.80823933	     48.61112230	     48.61112230	     -0.88858883	    -13.95764330	     -1.55854089	      5.19477732	     -2.76956594	    -10.78459325	     14.36095423	     14.36095423	     15.86499496	     -1.36547881	     -0.69954426	    -10.90698291	      5.56154982	      1.61624823	     -9.95938638	    -12.47099008	     -4.06165899	     26.62274132	     46.46197383	      0.00000000	      0.00000000	     22.44642284	    -16.17996243	     -3.58643924	     71.66865646	     47.08190812	      0.00000000	      0.00000000
     39.68428571	     -4.62837674	     -3.71498984	     -0.73370662	      0.93436918	      0.93503990	      0.43462522	     38.22199040	     -3.96585539	     -8.15545411	     44.01010031	     44.01010031	     -0.54212038	    -12.97718690	     -1.20249298	      4.54415601	     -2.84798645	    -10.80596146	     13.96169585	     13.96169585	     16.18053967	     -1.33243309	     -0.86536501	    -10.83151626	      5.62311840	      1.54537440	    -11.07477940	    -12.51209933	     -4.01500290	     26.36154234	     46.45743938	      0.00000000	      0.00000000	     23.06940652	    -16.24929191	     -3.76876188	     72.47046348	     47.11786466	      0.00000000	      0.00000000
     39.69714286	     -4.70313534	     -3.80236939	     -0.86159139	      0.93442084	      0.93390161	      0.43561740	     37.58516862	     -3.47787110	     -8.55126344	     39.20240281	     39.20240281	     -0.26052672	    -11.62706670	     -0.76443973	      3.82759562	     -2.93113179	    -10.87820082	     13.53374383	     13.53374383	     16.49532295	     -1.29850910	     -1.08155420	    -10.73223065	      5.66901644	      1.54136536	    -12.12375258	    -12.52060557	     -4.03295781	     26.23906008	     46.45245622	      0.00000000	      0.00000000	     23.56505263	    -16.31610450	     -3.95747493	     73.45198712	     47.15598310	      0.00000000	      0.00000000
     39.71000000	     -4.61169927	     -3.79037545	     -0.99391679	      0.93486232	      0.93269406	      0.43668542	     36.59909364	     -3.10257845	     -9.03593123	     34.42139108	     34.42139108	      0.06507262	     -9.62297380	     -0.43602307	      2.79190285	     -2.88092533	    -11.00428823	     12.88654292	     12.88654292	     16.69373621	     -1.17932327	     -1.68211066	    -10.85400355	      5.57385704	      1.54574317	    -13.28356554	    -12.57533491	     -4.27771257	     26.78229810	     46.43132064	      0.00000000	      0.00000000	     23.60928127	    -16.33286609	     -4.36463142	     75.49132877	     47.23749410	      0.00000000	      0.00000000
     39.72285714	     -4.66876018	     -3.85324836	     -1.10947471	      0.93541518	      0.93107688	      0.43798674	     35.63219591	     -2.54728366	     -9.43682276	     29.71174772	     29.71174772	      0.17779910	     -7.88382604	      0.44860807	      2.09394552	     -2.96193779	    -11.01305151	     12.60556607	     12.60556607	     17.09591235	     -1.26466932	     -2.00381731	    -10.69820531	      5.56744980	      1.42271941	    -14.01509999	    -12.60792924	     -4.37786553	     26.73027691	     46.43296496	      0.00000000	      0.00000000	     23.79290734	    -16.45255437	     -4.49837291	     76.17063271	     47.26505887	      0.00000000	      0.00000000
     39.73571429	     -4.66521932	     -3.74843318	     -1.26049440	      0.93630133	      0.92927030	      0.43938369	     34.59566336	     -2.14989224	     -9.79896117	     25.45787272	     25.45787272	      0.30920692	     -5.93400097	      1.45907861	      1.29543567	     -2.85823089	    -11.10806587	     12.30844193	     12.30844193	     17.49747116	     -1.30213917	     -2.33070054	    -10.56022579	      5.38345830	      1.39893372	    -14.62936230	    -12.57148327	     -4.49132133	     26.68578727	     46.43666360	      0.00000000	      0.00000000	     23.91819231	    -16.52928759	     -4.61339588	     76.90007379	     47.29093081	      0.00000000	      0.00000000
     39.74857143	     -4.46875066	     -3.83109502	     -1.34791230	      0.93771729	      0.92765296	      0.44086071	     33.27051640	     -1.66119783	    -10.57162974	     21.70719164	     21.70719164	      0.65077188	     -3.61625920	      2.75350881	      0.18883974	     -2.95314944	    -11.12415532	     11.88949751	     11.88949751	     17.90330919	     -1.28253167	     -2.70649199	    -10.61292496	      5.43857620	      1.38353128	    -15.14824012	    -12.64626667	     -4.70303716	     26.68415959	     46.44708944	      0.00000000	      0.00000000	     23.77431763	    -16.46231599	     -4.68298886	     77.81591946	     47.31704680	      0.00000000	      0.00000000
     39.76142857	     -4.32058513	     -3.75338366	     -1.47523109	      0.93931866	      0.92581006	      0.44247979	     32.19587021	     -1.34713050	    -11.30870419	     18.87922904	     18.87922904	      1.06013917	     -1.54257524	      4.15383122	     -0.82337365	     -2.88996583	    -11.16120193	     11.58260859	     11.58260859	     18.28914213	     -1.29609582	     -3.09010352	    -10.56334241	      5.29740394	      1.33016409	    -15.48696334	    -12.66629666	     -4.94912106	     26.69821867	     46.46118434	      0.00000000	      0.00000000	     23.50028118	    -16.45493478	     -4.75496562	     78.62097326	     47.34052306	      0.00000000	      0.00000000
     39.77428571	     -4.21920406	     -3.67816810	     -1.60226328	      0.94098322	      0.92401027	      0.44411108	     31.58677583	     -1.22711298	    -12.42196008	     17.57342686	     17.57342686	      3.33964755	      0.96892778	     10.47408117	     -1.80021860	     -2.79656962	    -11.00871089	     11.18867053	     11.18867053	     18.29767114	     -1.76347009	     -4.10703818	    -10.48593383	      5.16171307	      0.73995755	    -15.17569711	    -12.59258897	     -6.64290962	     26.45838095	     46.59377661	      0.00000000	      0.00000000	     22.25833182	    -16.70375015	     -5.56348830	     80.61777716	     47.48248222	      0.00000000	      0.00000000
     39.78714286	     -4.19227200	     -3.48939009	     -1.75047655	      0.94289441	      0.92197472	      0.44600946	     31.00077645	     -1.04630446	    -12.72744850	     16.53192013	     16.53192013	      3.51323244	      1.47004908	     10.64355867	     -2.47933014	     -2.67748534	    -11.04694580	     11.30328426	     11.30328426	     18.81449565	     -1.89801888	     -4.28782168	    -10.17843370	      4.92516069	      0.80802622	    -15.22033250	    -12.54643294	     -6.68267201	     26.38097108	     46.59903729	      0.00000000	      0.00000000	     21.85880287	    -16.49026842	     -5.44099917	     80.53787784	     47.47327497	      0.00000000	      0.00000000
